<svg width="38" height="36" viewBox="0 0 38 36" fill="none" xmlns="http://www.w3.org/2000/svg">
<path d="M19.3414 0.134766C9.16561 0.134766 0.914062 8.31569 0.914062 18.4082C0.914062 26.482 6.19406 33.3318 13.5158 35.7481C14.4368 35.9172 14.7749 35.3516 14.7749 34.869C14.7749 34.4332 14.7578 32.9937 14.7498 31.4668C9.62333 32.5722 8.54158 29.3107 8.54158 29.3107C7.70333 27.1986 6.49555 26.6369 6.49555 26.6369C4.82364 25.5028 6.62158 25.5261 6.62158 25.5261C8.472 25.6547 9.44635 27.4092 9.44635 27.4092C11.0899 30.2028 13.7572 29.3952 14.8087 28.9282C14.9741 27.7475 15.4517 26.9407 15.9787 26.4847C11.8857 26.0226 7.5831 24.4557 7.5831 17.4538C7.5831 15.4587 8.30295 13.8286 9.48174 12.5488C9.29041 12.0883 8.65967 10.23 9.66026 7.7129C9.66026 7.7129 11.2077 7.22178 14.7291 9.58603C16.199 9.18114 17.7754 8.9781 19.3414 8.97114C20.9075 8.9781 22.4851 9.18114 23.9577 9.58603C27.4749 7.22178 29.0202 7.7129 29.0202 7.7129C30.0232 10.23 29.3921 12.0883 29.2008 12.5488C30.3823 13.8286 31.0973 15.4587 31.0973 17.4538C31.0973 24.4724 26.7865 26.0178 22.6831 26.4702C23.3441 27.0373 23.933 28.1493 23.933 29.8542C23.933 32.299 23.9117 34.2668 23.9117 34.869C23.9117 35.3553 24.2433 35.9251 25.1774 35.7456C32.4952 33.3266 37.7685 26.4793 37.7685 18.4082C37.7685 8.31569 29.5182 0.134766 19.3414 0.134766" fill="#fff"/>
<path d="M7.8939 26.3713C7.85331 26.4624 7.70928 26.4893 7.57807 26.427C7.44441 26.3674 7.36935 26.2436 7.41268 26.1525C7.45235 26.059 7.59668 26.0333 7.73003 26.0954C7.86399 26.1553 7.94028 26.2802 7.8939 26.3713" fill="#fff"/>
<path d="M8.63878 27.1971C8.5509 27.2779 8.3791 27.2404 8.26253 27.1127C8.142 26.9853 8.11941 26.8149 8.20852 26.7329C8.29915 26.6521 8.46576 26.69 8.5866 26.8174C8.70713 26.9463 8.73063 27.1154 8.63878 27.1971" fill="#fff"/>
<path d="M9.36712 28.2496C9.25421 28.3273 9.0696 28.2544 8.95547 28.0919C8.84256 27.9294 8.84256 27.7345 8.95791 27.6565C9.07234 27.5784 9.25421 27.6486 9.36986 27.8099C9.48246 27.9748 9.48246 28.17 9.36712 28.2496" fill="#fff"/>
<path d="M10.3627 29.2662C10.2617 29.3767 10.0466 29.347 9.88912 29.1963C9.728 29.0489 9.68314 28.8398 9.78445 28.7294C9.88667 28.6186 10.103 28.6498 10.2617 28.7993C10.4216 28.9464 10.4704 29.157 10.3627 29.2662" fill="#fff"/>
<path d="M11.7357 29.8566C11.6911 29.9998 11.4839 30.0648 11.2752 30.004C11.0668 29.9414 10.9304 29.7737 10.9725 29.6291C11.0158 29.485 11.2239 29.4173 11.4342 29.4823C11.6423 29.5447 11.779 29.7111 11.7357 29.8566" fill="#fff"/>
<path d="M13.243 29.9664C13.2482 30.1171 13.0712 30.2421 12.8521 30.2445C12.6318 30.2496 12.4536 30.1277 12.4512 29.9794C12.4512 29.8272 12.6242 29.7034 12.8445 29.6998C13.0636 29.6956 13.243 29.8166 13.243 29.9664" fill="#fff"/>
<path d="M14.647 29.7294C14.6732 29.8765 14.521 30.0275 14.3034 30.0675C14.0895 30.1065 13.8914 30.0157 13.8643 29.8699C13.8377 29.7192 13.9928 29.5682 14.2064 29.5291C14.4242 29.4916 14.6192 29.58 14.647 29.7294" fill="#fff"/>
</svg>
