<svg version="1.1" id="Layer_1" xmlns="http://www.w3.org/2000/svg" xmlns:xlink="http://www.w3.org/1999/xlink" x="0px" y="0px"
	 viewBox="0 0 512 512" style="enable-background:new 0 0 512 512;" xml:space="preserve">
<g>
	<path fill="#fff" d="M256,0C114.6,0,0,114.6,0,256c0,141.4,114.6,256,256,256c141.4,0,256-114.6,256-256C512,114.6,397.4,0,256,0z M402.3,145
		L379,167.3c-2.1,1.5-3,4.1-2.6,6.5v164.4c-0.4,2.5,0.6,5,2.6,6.5l22.9,22.3v5H287.1v-4.7l23.6-22.9c2.3-2.3,2.3-3,2.3-6.5v-133
		l-65.7,166.6h-8.9L162,204.9v111.7c-0.7,4.7,1,9.4,4.3,12.8l30.7,37.2v5h-87.3v-5l30.7-37.2c3.3-3.4,4.8-8.1,4-12.8V187.4
		c0.4-3.6-1-7.1-3.7-9.5L113.4,145v-5h84.9l65.5,143.7l57.7-143.6h80.9V145z"/>
</g>
</svg>
