<svg width="37" height="36" viewBox="0 0 37 36" fill="none" xmlns="http://www.w3.org/2000/svg">
<path fill-rule="evenodd" clip-rule="evenodd" d="M18.4615 0C8.26551 0 0 8.05887 0 18C0 27.9411 8.26551 36 18.4615 36C28.6576 36 36.9231 27.9411 36.9231 18C36.9231 8.05887 28.6576 0 18.4615 0ZM17.9474 15.2535L17.9086 14.6306C17.7924 13.0163 18.8126 11.5418 20.4267 10.9698C21.0208 10.7665 22.028 10.741 22.6866 10.919C22.9449 10.9953 23.4356 11.2495 23.7842 11.4783L24.417 11.8977L25.1143 11.6817C25.5017 11.5673 26.0183 11.3766 26.2507 11.2495C26.4702 11.1351 26.6639 11.0715 26.6639 11.1097C26.6639 11.3258 26.1861 12.063 25.7858 12.4697C25.2435 13.0417 25.3984 13.0926 26.4961 12.7113C27.1547 12.4952 27.1676 12.4952 27.0384 12.7367C26.961 12.8638 26.5606 13.3087 26.1345 13.7154C25.4113 14.4145 25.3726 14.4908 25.3726 15.0755C25.3726 15.978 24.9335 17.8592 24.4945 18.8888C23.6809 20.8209 21.9376 22.8165 20.1943 23.8207C17.7407 25.2316 14.4736 25.5875 11.7231 24.7613C10.8062 24.4817 9.23077 23.7699 9.23077 23.6427C9.23077 23.6046 9.70857 23.5538 10.2897 23.5411C11.5035 23.5156 12.7174 23.1851 13.7505 22.6004L14.4478 22.1937L13.6472 21.9268C12.5108 21.5454 11.4906 20.6684 11.2324 19.8421C11.1549 19.5752 11.1807 19.5625 11.9039 19.5625L12.6528 19.5498L12.0201 19.2574C11.2711 18.8888 10.5867 18.266 10.2509 17.6304C10.0056 17.1728 9.69565 16.0161 9.78605 15.9271C9.81188 15.889 10.0831 15.9653 10.393 16.067C11.284 16.3847 11.4002 16.3085 10.8837 15.7746C9.91518 14.8086 9.61817 13.3722 10.0831 12.0121L10.3026 11.402L11.1549 12.2282C12.8982 13.8934 14.9514 14.8848 17.3017 15.1772L17.9474 15.2535Z" fill="#fff"/>
</svg>
